<?xml version="1.0" encoding="utf-8"?>
<!-- Generator: Adobe Illustrator 18.0.0, SVG Export Plug-In . SVG Version: 6.00 Build 0)  -->
<!DOCTYPE svg PUBLIC "-//W3C//DTD SVG 1.1//EN" "http://www.w3.org/Graphics/SVG/1.1/DTD/svg11.dtd">
<svg version="1.1" id="Layer_1" xmlns="http://www.w3.org/2000/svg" xmlns:xlink="http://www.w3.org/1999/xlink" x="0px" y="0px"
	 viewBox="0 0 40 40" enable-background="new 0 0 40 40" xml:space="preserve">
<path fill="#FFFFFF" d="M20,9.6c-8.9,0-16.8,4.6-19.9,11.2C3.2,27.5,11.1,32,20,32h0c8.9,0,16.8-4.6,19.9-11.2
	C36.9,14.2,28.9,9.6,20,9.6z M20,28.7c-4.4,0-8-3.6-8-8s3.6-8,8-8s8,3.6,8,8S24.4,28.7,20,28.7z"/>
<path fill="#FFFFFF" d="M20,16.3c-2.4,0-4.4,2-4.4,4.4c0,0.3,0,0.6,0.1,0.8c0,0,0,0,0,0c0.7-0.9,2-1.1,2.9-0.5
	c0.9,0.7,1.1,1.9,0.5,2.9c-0.3,0.4-0.6,0.6-1,0.7c0.6,0.3,1.3,0.5,2,0.5c2.4,0,4.4-2,4.4-4.4C24.5,18.2,22.5,16.3,20,16.3z"/>
</svg>
