<?xml version="1.0" encoding="utf-8"?>
<!-- Generator: Adobe Illustrator 18.0.0, SVG Export Plug-In . SVG Version: 6.00 Build 0)  -->
<!DOCTYPE svg PUBLIC "-//W3C//DTD SVG 1.1//EN" "http://www.w3.org/Graphics/SVG/1.1/DTD/svg11.dtd">
<svg version="1.1" id="Layer_1" xmlns="http://www.w3.org/2000/svg" xmlns:xlink="http://www.w3.org/1999/xlink" x="0px" y="0px"
	 viewBox="0 0 300 300" enable-background="new 0 0 300 300" xml:space="preserve">
<g>
	<path fill="#0E46A3" d="M291.2,143c0-1.4-0.1-2.9-0.1-4.3c-0.4-0.9,0-1.8-0.2-2.7c0-0.6-0.1-1.3-0.1-1.9c-0.3-0.6,0-1.2-0.2-1.7
		c-0.3-2.5-0.6-4.9-1-7.4c-5-29.9-18.3-55.5-40.6-75.9C217,19.8,179.2,8.1,136.5,15.1C92.4,22.4,60.1,47,39.2,86.4
		c-3.9,7.3-6.6,15-9,22.9c0,0.2-0.1,0.4-0.1,0.6c-1.7,5.9-2.9,11.8-3.7,17.9c-0.5,3.1,0,6,2.5,8.1c2.6,2.2,5.7,2.7,8.9,1.3
		c3.3-1.4,4.8-4,5.2-7.5c0.4-3,0.8-6,1.7-8.9c0.9-1.5,1.4-3.2,1.3-5c0.4-2.2,1.1-4.3,1.9-6.4c0.6-0.3,0.8-0.9,0.9-1.5
		c2.2-6.9,5.4-13.4,9-19.7c6.2-11,14.3-20.6,23.7-29c8.1-7.2,17.1-13.1,26.8-17.8c13.6-6.5,28-10.3,43.1-11.1
		c12-0.6,23.8,0.4,35.5,3.4c23.8,6.2,43.6,18.7,59.6,37.2c8.6,10,15.3,21.2,20,33.6c2.7,7.2,4.9,14.5,6,22.1c0.4,2,0,4.1,1,6
		c0.5,0.6,0.5,1.2,0.4,1.9c0.3,0.6,0,1.2,0.2,1.7c0,0.8,0.1,1.5,0.1,2.3c0.4,1.1,0,2.3,0.2,3.4c0,2.7,0,5.4,0,8
		c-0.3,1.1,0.1,2.3-0.2,3.4c0,0.8-0.1,1.5-0.1,2.3c-0.2,0.6,0.1,1.2-0.2,1.7c-0.3,2.3-0.4,4.7-0.8,7c-3.6,21.8-12.6,41-27,57.7
		c-1.8,2-3.5,4.2-5.6,5.8c-2,1.1-3.5,2.9-5.1,4.4c-7.9,7.1-16.7,13-26.2,17.7c-2,1-4,2-6.1,2.7c-0.2-0.4,0-0.7,0.1-0.9
		c3.2-6.2,5-12.7,5.3-19.7c0.1-1.5,0.4-3,2-3.8c0.5-0.2,0.7-0.7,0.8-1.2c2.3-2.4,4.1-5,5.1-8.3c0.3-0.5-0.1-1.2,0.3-1.7
		c-0.3-4.5-2.2-8-5.5-11c-4.7-4.3-10.3-6.8-16.2-8.9c-6.8-2.4-13.9-3.6-20.9-4.7c-0.5-0.2-1.2,0.1-1.7-0.2c-0.6,0-1.1-0.1-1.7-0.1
		c-0.6-0.2-1.2,0.1-1.7-0.2c-0.9,0-1.7-0.1-2.6-0.1c-2-0.4-4.1-0.7-6.2-0.7c-2.9,0-5.9,0.1-8.8,0.2c-7.4,0.3-14.6,1.3-21.8,3
		c-0.8,0.2-1.8,0.2-2.4,0.9c-3,1.2-6.2,1.9-9.1,3.2c-4.4,1.9-8.7,3.8-12.2,7.1c-0.5,0.1-0.9,0.2-1.1,0.7c-0.5,0.6-0.9,1.3-1.5,1.9
		c-2.5,2.9-3.7,6.4-3,10.2c0.7,4.3,3.4,7.4,6.8,9.9c0.9,0.7,1.4,1.5,1.4,2.7c0.2,5.3,1.2,10.5,3.1,15.4c0.9,2.3,2,4.6,3,6.9
		c-0.7,0.1-1.2-0.2-1.7-0.4c-5.2-2.2-10.2-4.8-15.1-7.7c-3.3-2-6.4-4.2-9.5-6.4c-3.3-2.3-7.9-2-10.6,0.5c-2.9,2.7-3.6,7.7-1.3,11.1
		c1.4,2.1,3.6,3.3,5.6,4.7c7.2,5.1,14.9,9.3,22.9,12.8c5.6,2.5,11.3,4.5,17.2,6.1c7.3,2.1,14.7,3.5,22.3,4.2
		c0.5,0.2,1.2-0.1,1.7,0.2c0.7,0,1.3,0.1,2,0.1c0.9,0.3,1.8-0.1,2.7,0.2c1.3,0,2.7,0.1,4,0.1c2.4,0.1,4.9,0.1,7.3,0
		c8.3-0.3,16.6-1.3,24.7-3c46.3-9.9,84.7-45.1,98.6-90.2c1.8-5.8,3.1-11.8,4.3-17.8c0-1.7,0.3-3.4,0.7-5c0.3-0.5-0.1-1.2,0.3-1.7
		c0-0.4,0.1-0.9,0.1-1.3c0.2-0.6-0.1-1.2,0.2-1.7c0-0.6,0.1-1.3,0.1-1.9c0.3-0.9-0.1-1.8,0.2-2.7c0-1.4,0.1-2.9,0.1-4.3
		C291.3,147.4,291.3,145.2,291.2,143z M189.9,239.5c-4.3,14.2-17.5,23.6-32.4,23.1c-13.8-0.4-23.8-6.8-29.9-19.3
		c-2.5-5.2-3.1-10.7-2.8-16.4c0.1-2.3-0.2-4.6,0.2-7c1-5.4,5.5-10,10.9-11.1c6.1-1.2,11.5,0.8,14.5,5.4c0.8,1.2,1.2,2.5,1.6,3.8
		c0.8,2.8,3,4.4,5.9,4.5c2.9,0,5.1-1.6,6-4.3c2.2-7,7.5-10.5,14.7-9.6c7,0.8,12.2,6.1,12.5,13.2
		C191.5,227.7,191.7,233.7,189.9,239.5z"/>
	<path fill="#0E46A3" d="M74.9,205.2c-0.5-2.9-1.5-5.6-2.4-8.3c0.1-0.2,0.1-0.3-0.2-0.3c-1-2-1.9-3.9-2.9-5.9c-2.1-4.2-4.8-8-7-12
		c-0.2-0.9-0.7-1.6-1.2-2.4c-3.2-4.8-6.8-9.5-10.2-14.1c-2-2.4-3.6-5-6-7c-0.3-0.2-0.6-0.2-0.9-0.2c-0.4-0.1-0.9-0.3-1.3-0.4
		c-0.8-0.2-1.5-0.2-2.3,0c-0.7,0.2-1.3,0.5-2,0.7c-1,0.8-1.7,1.9-2.5,2.8c-5.2,6.5-10,13.3-14.8,20.1c-2.6,3.8-4.9,7.8-7.1,11.9
		c-2.6,4.8-4.8,9.7-5.6,15.1c-0.2,1.4-0.1,2.9,0,4.3c0.2,2.9,0.8,5.7,2,8.5c2.5,6,6.5,10.7,11.9,14.2c4.9,3.2,10.3,5,16.2,5.5
		c2.1,0.1,4.2,0.1,6.3,0c15.2-1.4,28.3-12.1,30.1-27.8C75.1,208.3,75.1,206.8,74.9,205.2z M56.2,213.6c-3.9,5.7-9.5,7.7-16.2,7.3
		c-6-0.4-10.8-3.1-13.7-8.6c-1.4-2.6-1.6-5.2-0.4-8c3-7.1,7.1-13.5,11.4-19.9c1.4-2,2.8-4,4.3-6.2c5.9,8.3,11.5,16.4,15.5,25.5
		C58.8,207.3,58.3,210.5,56.2,213.6z"/>
	<path fill="#0E46A3" d="M114,88.2c-3.2-0.6-5.8,0.4-8,2.7c-3.8,3.9-7.6,7.6-12.1,10.7c-5.2,3.6-10.6,6.6-16.7,8.4
		c-0.4,0.2-0.8,0.4-1.2,0.5c-3.7,1.2-7.5,1.9-11.3,2.7c-3.9,0.8-6.2,3.8-6.5,8c-0.3,3.3,2,6.8,5.4,8.1c2.5,0.9,4.8,0.2,7.2-0.2
		c8.3-1.4,16.2-4.3,23.7-8.2c0.7,0.1,1.2-0.2,1.7-0.5c2.5-1.3,4.8-2.9,7.1-4.5c0.4-0.3,0.7-0.6,0.8-1c5.2-3.8,9.8-8.1,14.2-12.7
		c2.3-2.4,3-5.3,1.9-8.5C119.3,90.7,117.2,88.8,114,88.2z"/>
	<path fill="#0E46A3" d="M110.1,143.6c-4.2,2.2-6.2,6-6.3,10.7c-0.1,2.6,0.8,5,2,7.3c2.1,3.1,5,4.9,8.7,5.4c1.2,0.2,2.4,0.2,3.6,0
		c6.6-1.3,10.4-6.4,10.6-11.8c0.2-4.8-1.8-8.7-6-11.3C118.7,141.4,114.3,141.3,110.1,143.6z"/>
	<path fill="#0E46A3" d="M187,152.6c-0.1,1.3-0.1,2.6,0,4c0.7,5.3,5,9.8,10.8,10.4c1.1,0.1,2.2,0.1,3.3,0c1.3-0.3,2.6-0.6,3.8-1.2
		c3.8-2,6.1-5.1,7-9.3c0.1-1.3,0.1-2.6,0-4c-0.1-0.4-0.3-0.8-0.4-1.3c-1.5-6-6.7-9.4-12.3-9.3C192.8,142.1,188.1,146.2,187,152.6z"
		/>
	<path fill="#0E46A3" d="M211.4,114.4c6.8,5,14.2,8.7,22,11.6c4.3,1.3,8.5,2.6,12.9,3.4c4,0.7,7.4,0.1,10.1-3
		c3.9-6.3-0.3-12.7-6.5-13.5c-9.3-1.2-17.8-4.8-25.7-9.9c-5.4-3.5-10-7.9-14.5-12.5c-3.1-3.2-8.3-3.2-11.5-0.3
		c-3.3,3.1-3.7,8.5-0.6,11.7C201.9,106.4,206.4,110.7,211.4,114.4z"/>
</g>
</svg>
