<?xml version="1.0" encoding="utf-8"?>
<!-- Generator: Adobe Illustrator 18.0.0, SVG Export Plug-In . SVG Version: 6.00 Build 0)  -->
<!DOCTYPE svg PUBLIC "-//W3C//DTD SVG 1.1//EN" "http://www.w3.org/Graphics/SVG/1.1/DTD/svg11.dtd">
<svg version="1.1" id="Layer_1" xmlns="http://www.w3.org/2000/svg" xmlns:xlink="http://www.w3.org/1999/xlink" x="0px" y="0px"
	 viewBox="0 0 300 300" enable-background="new 0 0 300 300" xml:space="preserve">
<g>
	<g>
		<path fill="#0E46A3" d="M292.8,189.5c-0.4-2.1-0.7-4.2-1.3-6.2c-4.4-13.7-16.4-22.3-31.2-22.3c-73.5,0-147,0-220.6,0
			c-5.5,0-10.8,1-15.6,3.7c-10.3,5.7-15.9,14.6-17,26.3c0,6,0,12,0,17.9c0.1,12.2,4.3,22.9,12.5,32c1.6,1.7,3.3,3.3,5,4.9
			c3.8,3.2,8.1,5.5,12.7,7.4c4.2,1.7,8.5,2.7,13,3c0.7,0.2,1.4-0.1,2.1,0.2c0.5,0,1-0.1,1.5-0.1c64,0,128,0,192,0
			c0.6,0,1.1,0,1.7,0.1c0.7-0.3,1.5,0,2.3-0.2c0.9-0.1,1.7-0.2,2.6-0.4c10.5-1.7,19.6-6.3,27-14c8.6-9,13.2-19.8,13.3-32.3
			C292.9,202.8,292.8,196.1,292.8,189.5z M214.9,176.9c4.9,0.1,9.7,0,14.6,0c4.9,0,9.7,0,14.6,0c0.7,0,1.2,0.1,1.2,1
			c-0.1,5.5,0.1,10.9-0.2,16.4c-0.3,7-6.5,13.2-13.5,14.2c-9.2,1.3-18.3-5.9-18.2-16.3c0.1-4.6,0-9.3,0-13.9
			C213.5,177.1,213.8,176.9,214.9,176.9z M159.3,176.9c6.2,0,12.3,0,18.5,0c6.2,0,12.3,0,18.5,0c1.1,0,1.4,0.3,1.4,1.4
			c-0.1,6.5,0,13.1-0.1,19.6c-0.2,8.9-7.4,16.9-16.2,18.3c-11.3,1.8-21.2-5.3-23.2-16.6c-0.2-1-0.2-2-0.2-3c0-6.1,0-12.2,0-18.4
			C157.9,177.1,158.3,176.9,159.3,176.9z M103.8,176.9c6.2,0,12.3,0,18.5,0c6.2,0,12.3,0,18.5,0c1,0,1.3,0.3,1.3,1.3
			c0,6.3,0,12.5,0,18.8c-0.1,10.1-8.4,18.9-18.2,19.5c-10.8,0.6-19.8-6.5-21.3-17c-0.1-1-0.2-1.9-0.2-2.9c0-6.1,0-12.2,0-18.4
			C102.4,177.1,102.7,176.9,103.8,176.9z M56.1,176.9c4.9,0.1,9.7,0,14.6,0c4.8,0,9.6,0,14.5,0c1,0,1.4,0.1,1.4,1.3
			c-0.1,5.1,0,10.1-0.1,15.2c-0.1,8.2-6.7,14.9-15.4,15.3c-8.3,0.4-14.8-5.7-16.1-13c-0.4-2.3-0.2-4.5-0.3-6.8c0-3.5,0-7,0-10.6
			C54.7,177.2,55,176.8,56.1,176.9z M276.9,210.8c-0.6,12.6-9.4,23.8-21.5,27.9c-3.4,1.1-6.8,2-10.4,2c-31.7,0-63.4,0.3-95,0.3
			s-63.4,0-95,0c-16,0-29.4-12.1-31.6-28c-0.5-3.5-0.2-7.2-0.2-10.7c-0.1-3.2,0-6.5,0-9.7c0-8.2,6.5-15.1,14.6-15.7
			c1-0.1,1.3,0.2,1.3,1.2c0,5,0,9.9,0,14.9c0,15.8,12.2,29.5,28,31.3c9.1,1,17.3-1.5,24.3-7.3c0.9-0.7,1.2-0.6,1.8,0.3
			c13.1,18.8,40.6,20.4,55.9,3.3c0.9-1,1.3-1.1,2.3,0c15.3,17.2,42.7,15.6,55.9-3.2c0.6-0.8,0.9-1.1,1.8-0.3
			c16,13.2,38.9,8.7,48.7-9.5c2.3-4.3,3.6-9,3.6-14c0-5.1,0-10.1,0-15.2c0-1.2,0.4-1.4,1.5-1.3c7.8,0.7,14.1,7.1,14.3,15
			C277.1,198.2,277.2,204.5,276.9,210.8z"/>
	</g>
	<g>
		<path fill="#0E46A3" d="M7.2,116.6c0.4,2.1,0.7,4.2,1.3,6.2c4.4,13.7,16.4,22.3,31.2,22.3c73.5,0,147,0,220.6,0
			c5.5,0,10.8-1,15.6-3.7c10.3-5.7,15.9-14.6,17-26.3c0-6,0-12,0-17.9c-0.1-12.2-4.3-22.9-12.5-32c-1.6-1.7-3.3-3.3-5-4.9
			c-3.8-3.2-8.1-5.5-12.7-7.4c-4.2-1.7-8.5-2.7-13-3c-0.7-0.2-1.4,0.1-2.1-0.2c-0.5,0-1,0.1-1.5,0.1c-64,0-128,0-192,0
			c-0.6,0-1.1,0-1.7-0.1c-0.7,0.3-1.5,0-2.3,0.2c-0.9,0.1-1.7,0.2-2.6,0.4c-10.5,1.7-19.6,6.3-27,14c-8.6,9-13.2,19.8-13.3,32.3
			C7.1,103.3,7.2,109.9,7.2,116.6z M85.1,129.2c-4.9-0.1-9.7,0-14.6,0c-4.9,0-9.7,0-14.6,0c-0.7,0-1.2-0.1-1.2-1
			c0.1-5.5-0.1-10.9,0.2-16.4c0.3-7,6.5-13.2,13.5-14.2c9.2-1.3,18.3,5.9,18.2,16.3c-0.1,4.6,0,9.3,0,13.9
			C86.5,129,86.2,129.2,85.1,129.2z M140.7,129.2c-6.2,0-12.3,0-18.5,0c-6.2,0-12.3,0-18.5,0c-1.1,0-1.4-0.3-1.4-1.4
			c0.1-6.5,0-13.1,0.1-19.6c0.2-8.9,7.4-16.9,16.2-18.3c11.3-1.8,21.2,5.3,23.2,16.6c0.2,1,0.2,2,0.2,3c0,6.1,0,12.2,0,18.4
			C142.1,129,141.7,129.2,140.7,129.2z M196.2,129.2c-6.2,0-12.3,0-18.5,0c-6.2,0-12.3,0-18.5,0c-1,0-1.3-0.3-1.3-1.3
			c0-6.3,0-12.5,0-18.8c0.1-10.1,8.4-18.9,18.2-19.5c10.8-0.6,19.8,6.5,21.3,17c0.1,1,0.2,1.9,0.2,2.9c0,6.1,0,12.2,0,18.4
			C197.6,129,197.3,129.2,196.2,129.2z M243.9,129.2c-4.9-0.1-9.7,0-14.6,0c-4.8,0-9.6,0-14.5,0c-1,0-1.4-0.1-1.4-1.3
			c0.1-5.1,0-10.1,0.1-15.2c0.1-8.2,6.7-14.9,15.4-15.3c8.3-0.4,14.8,5.7,16.1,13c0.4,2.3,0.2,4.5,0.3,6.8c0,3.5,0,7,0,10.6
			C245.3,128.9,245,129.2,243.9,129.2z M23.1,95.3c0.6-12.6,9.4-23.8,21.5-27.9c3.4-1.1,6.8-2,10.4-2c31.7,0,63.4-0.4,95-0.4
			s63.4,0,95,0c16,0,29.4,12.2,31.6,28c0.5,3.5,0.2,7.2,0.2,10.7c0.1,3.2,0,6.5,0,9.7c0,8.2-6.5,15.1-14.6,15.7
			c-1,0.1-1.3-0.2-1.3-1.2c0-5,0-9.9,0-14.9c0-15.8-12.2-29.5-28-31.3c-9.1-1-17.3,1.5-24.3,7.3c-0.9,0.7-1.2,0.6-1.8-0.3
			c-13.1-18.8-40.6-20.4-55.9-3.3c-0.9,1-1.3,1.1-2.3,0C133.5,68.4,106.2,70,93,88.9c-0.6,0.8-0.9,1.1-1.8,0.3
			c-16-13.2-38.9-8.7-48.7,9.5c-2.3,4.3-3.6,9-3.6,14c0,5.1,0,10.1,0,15.2c0,1.2-0.4,1.4-1.5,1.3c-7.8-0.7-14.1-7.1-14.3-15
			C22.9,107.9,22.8,101.6,23.1,95.3z"/>
	</g>
</g>
</svg>
