<?xml version="1.0" encoding="utf-8"?>
<!-- Generator: Adobe Illustrator 18.0.0, SVG Export Plug-In . SVG Version: 6.00 Build 0)  -->
<!DOCTYPE svg PUBLIC "-//W3C//DTD SVG 1.1//EN" "http://www.w3.org/Graphics/SVG/1.1/DTD/svg11.dtd">
<svg version="1.1" id="Layer_1" xmlns="http://www.w3.org/2000/svg" xmlns:xlink="http://www.w3.org/1999/xlink" x="0px" y="0px"
	 viewBox="0 0 300 300" enable-background="new 0 0 300 300" xml:space="preserve">
<g>
	<path fill="#0E46A3" d="M22.4,117.5c3.9,1.8,7.8,3.2,12.1,3.5c0.5,0.2,1,0.1,1.5,0.1c49.4,0,98.9,0,148.3,0c0.5,0,1,0.1,1.5-0.1
		c5.3-0.5,10.3-1.7,15.2-3.7c0.6-0.3,1.2-0.5,1.8-0.8c6-3,11.3-6.9,15.7-12c10.3-12.2,14-26.1,10.8-41.7c-2.5-11.8-9.5-20.4-19.3-27
		c-9.3-6.2-19.7-9.4-30.7-10.7c-5.5-0.6-8.8,2.2-9.3,7.6c-0.4,4.1-0.8,8.2-2.2,12.1c-2,5.5-5.5,9.4-11.3,11
		c-2.4,0.7-4.8,0.8-7.2,0.8c-37.3,0-74.6,0-111.9,0c-1.3,0-2.6,0-3.9,0.2c-15.9,2-28,15.5-28.1,31.6c0,9.1,3.1,16.9,9.5,23.4
		C17.1,114.2,19.7,115.9,22.4,117.5z M35.1,73c1.1-0.1,2.2-0.2,3.4-0.2c37.2,0,74.3,0,111.5,0c6.9,0,13.5-1.4,19.5-5.1
		c8.4-5.2,12.8-13.1,15-22.4c0.7-2.9,0.7-2.9,3.6-2c5.5,1.7,10.7,4,15.3,7.6c8.6,6.6,12.1,15.4,10.7,26.1
		c-1.8,13.5-11.3,23.5-24.5,26.7c-2.4,0.6-4.8,0.4-7.2,0.4c-24,0-47.9,0-71.9,0c-24.2,0-48.3,0-72.5,0c-8.3,0-14.7-4.7-16.3-12.8
		C20,82.6,26.4,74.1,35.1,73z"/>
	<path fill="#0E46A3" d="M293.6,236.6c-1.8-2.5-4.4-3.5-7.5-3.5c-28.3,0-56.5,0-84.8,0c-2.5,0-2.5,0-2.5-2.5c0-18.8,0-37.7,0-56.5
		c0-1.5,0.1-3-0.3-4.5c-0.2-0.8-0.2-1.8,0.1-2.6c0.5-1.5,0.4-3,0.2-4.5c-0.2-1.1-0.3-2.2-0.3-3.3c-0.1-5,0.1-10-0.1-14.9
		c-0.4-2.3-1.4-4.3-3.3-5.7c-2.6-1.8-5.5-2.1-8.4-0.6c-2.9,1.5-4.4,3.9-4.4,7.2c-0.1,9.9,0,19.7-0.1,29.6c-0.7,0.8-0.5,1.8-0.5,2.7
		c0,17.9,0,35.8,0,53.7c0,2,0,2-2,2c-3.7,0-7.3,0-11,0c-1.9,0-2-0.1-2-2c-0.2-20.5,0.4-41.1-0.4-61.6c-0.2-6.7,0-13.3,0-20
		c0-1.6,0.1-3.3-0.1-4.9c-0.7-5.3-4.8-7.7-8.5-7.5c-4.2,0.2-7.8,3.8-7.7,8.9c0.2,9.7,0,19.3,0,29c-0.7,0.9-0.5,2-0.5,3
		c0,17.7,0,35.3,0,53c0,2.1,0,2.1-2.1,2.1c-3.2,0-6.5,0-9.7,0c-3.4,0-3.1,0.3-3.1-3.1c0-17.4,0-34.9,0-52.3c0-0.9,0.2-1.9-0.5-2.7
		c0-0.6,0-1.1,0-1.7c0-9.4,0-18.8,0-28.1c0-3.8-2.5-6.9-6-7.9c-1.4-0.4-2.9-0.1-4.3,0c-3.3,1.2-5.4,3.4-5.8,7
		c-0.1,0.2-0.1,0.5-0.1,0.7c-0.2,12.8,0,25.5-0.3,38.3c-0.4,15.8-0.1,31.6-0.1,47.3c0,2.5,0,2.5-2.6,2.5c-3.2,0-6.4,0-9.6,0
		c-3,0-2.8,0.2-2.8-2.8c0-16.3,0.5-32.6,0.5-48.9c0-0.9,0-1.9,0-2.7c0-11.2,0-22.4,0-33.6c-2-5.4-4.8-8.6-9.9-7.9
		c-3.4,0.4-6.1,2.9-7.1,7.1c-0.1,0.9-0.5,1.7-0.5,2.6c0,12,0,24-0.1,35.9c-0.1,16.1-0.1,32.1-0.1,48.2c0,2-0.1,2.1-2.1,2.1
		c-3.5,0-7,0-10.4,0c-2.5,0-2.5,0-2.5-2.5c0-16.3,0-32.5,0-48.8c0-0.7,0-1.4-0.1-2.1c0-0.3,0.1-0.6,0.1-0.8c0-9.8,0-19.5,0-29.3
		c0-0.6,0-1.2-0.5-1.7c0-0.9,0-1.9-0.1-2.8c-0.1-3.7-2.4-6.7-5.8-7.7c-0.8-0.2-1.6-0.3-2.3-0.4c-0.1,0-0.3,0.1-0.4,0.1
		c-5.1,0.8-7.5,3.6-7.5,8.8c0,28.7,0,57.3,0,86c0,1.3-0.2,1.8-1.7,1.7c-4.2-0.1-8.5-0.1-12.7,0c-1.4,0-1.8-0.3-1.8-1.8
		c0-28.4,0-56.8,0-85.3c0-1-0.1-2-0.2-2.9c-0.8-4.6-5.5-7.6-10.1-6.3c-3.8,1.1-5.9,4.1-5.9,8.6c0,28.6,0,57.2,0,85.8
		c0,0.5,0.2,1.1-0.2,1.6c-0.4,0.4-0.9,0.2-1.3,0.2c-2.2,0-4.4,0-6.6,0c-2,0-3.7,0.7-5.1,1.9c-2.3,2-3,4.5-2.8,7.5
		c0.2,1.2,0.5,2.3,1.3,3.3c1.9,2.5,4.4,3.4,7.5,3.4c83.6,0,167.2,0,250.7,0c7.2,0,14.5,0,21.7,0c2.3,0,4.2-0.7,5.9-2.3
		c1.2-1.2,1.9-2.7,2.4-4.4C295.9,240.6,295,238.5,293.6,236.6z"/>
</g>
</svg>
