<?xml version="1.0" encoding="utf-8"?>
<!-- Generator: Adobe Illustrator 18.0.0, SVG Export Plug-In . SVG Version: 6.00 Build 0)  -->
<!DOCTYPE svg PUBLIC "-//W3C//DTD SVG 1.1//EN" "http://www.w3.org/Graphics/SVG/1.1/DTD/svg11.dtd">
<svg version="1.1" id="Layer_1" xmlns="http://www.w3.org/2000/svg" xmlns:xlink="http://www.w3.org/1999/xlink" x="0px" y="0px"
	 viewBox="0 0 300 300" enable-background="new 0 0 300 300" xml:space="preserve">
<g>
	<path fill="#0E46A3" d="M292.3,112.1c-2.8-3.3-6.2-5.2-10.6-5.5c-2-0.1-4-0.6-6.1-0.9c-12.5-1.9-25-3.7-37.4-5.5
		c-12.4-1.8-24.8-3.6-37.3-5.4c-1.1-0.2-1.8-0.7-2.3-1.7c-1.4-3.2-3-6.3-4.5-9.4c-10.8-22.2-21.6-44.4-32.4-66.6
		c-2.6-5.4-8.4-8.2-14.3-7.1c-5.4,1-8.3,4.6-10.6,9.3c-11.6,24.1-23.4,48.2-35,72.4c-1.2,2.5-2.6,3.6-5.2,3.4
		c-0.2,0.1-0.4,0.2-0.6,0.2c-14,2.1-28.1,4.2-42.1,6.2c-12.4,1.8-24.8,3.6-37.2,5.5c-5.5,0.8-9.3,3.8-11,9.2
		c-1.8,5.5,0.1,10.3,3.9,14.2c4.1,4.3,8.6,8.4,12.9,12.6c15.2,15.1,30.2,30.4,45.7,45.2c1.3,0.8,1.7,1.8,1.4,3.4
		c-2.5,14.2-4.8,28.5-7.2,42.7c-1.2,6.9-2.4,13.8-3.6,20.7c-0.1,0.3-0.3,0.6-0.4,0.9c-0.7,6.6-2.2,13-3.1,19.5
		c-0.2,1.2-0.2,2.4,0,3.7c0.3,5.1,5,10.5,10.8,11.2c1.6,0.2,3.3,0.2,4.9,0c1.4-0.5,2.9-0.8,4.2-1.6c8.9-4.8,17.9-9.7,26.8-14.5
		c7.2-3.8,14.4-7.6,21.6-11.4c7-3.7,14.1-7.4,21-11.4c3.4-1.9,6-2.3,9.8-0.1c7.5,4.3,15.3,8.2,23,12.2c15.8,8.2,31.3,16.7,47,25
		c5,2.7,9.9,2.6,14.5-0.8c4.6-3.4,6-8,5.1-13.6c-2.1-12.6-4.2-25.2-6.4-37.7c-2.5-14.9-5-29.7-7.6-44.6c-0.3-1.5,0-2.5,1.1-3.6
		c12.9-12.8,25.8-25.6,38.8-38.4c4.4-4.3,8.8-8.6,13.1-12.9c2.1-2.1,4.2-4.2,6.2-6.2C295.5,124.5,296.3,119.8,292.3,112.1z
		 M270.2,124.9c-17.2,17.1-34.4,34.2-51.7,51.2c-5.3,5.2-7,11.2-5.7,18.4c3.1,17.6,6,35.2,9,52.8c1.2,7,2.4,14.1,3.6,21.1
		c-0.7,0.4-1.1-0.1-1.6-0.4c-21.5-11.5-43-22.9-64.4-34.5c-6.3-3.4-12.4-3.4-18.7,0c-21.1,11.3-42.2,22.6-63.4,33.9
		c-0.8,0.4-1.6,0.8-2.7,1.4c0.7-4,1.2-7.6,1.9-11.2c2.4-14.3,4.8-28.5,7.2-42.8c1.3-7.5,2.5-14.9,3.7-22.4c1-6.1-0.8-11.3-5.2-15.7
		c-17.1-17-34.3-34-51.4-50.9c-0.9-0.9-1.9-1.6-2.8-2.4c0.1-0.2,0.2-0.4,0.3-0.6c2.7-0.4,5.4-0.8,8.1-1.2c8.6-1.3,17.1-2.6,25.7-3.8
		c0.5-0.1,1,0,1.4,0c5.2-0.8,10.4-1.7,15.5-2.4c8.2-1.2,16.3-2.4,24.5-3.7c5.9-0.9,10.2-4.2,12.8-9.5c10.9-22.4,21.7-44.8,32.6-67.2
		c0.3-0.6,0.6-1.2,1.1-2.1c1.8,3.7,3.5,7.1,5.2,10.5c9.3,19.3,18.7,38.5,28,57.8c3,6.2,7.8,9.8,14.6,10.8c20.8,3,41.6,6.1,62.3,9.1
		c0.6,0.1,1.2,0.3,1.8,0.4c0,0,0,0,0,0c3.2,0.4,6.4,0.8,10.1,1.3C271.3,123.8,270.7,124.4,270.2,124.9z"/>
</g>
</svg>
